name ./resultDataOpenSim/trcMotMarkerGrf/sub06/grf-14-01.mot
datacolumns 19
datarows 12
range 0.54400000 0.58800000
endheader

                time	     ground_force_vx	     ground_force_vy	     ground_force_vz	     ground_force_px	     ground_force_py	     ground_force_pz	   l_ground_force_vx	   l_ground_force_vy	   l_ground_force_vz	   l_ground_force_px	   l_ground_force_py	   l_ground_force_pz	     ground_torque_x	     ground_torque_y	     ground_torque_z	   l_ground_torque_x	   l_ground_torque_y	   l_ground_torque_z	
          0.54400000	        211.68132510	        725.25891896	        -42.90609745	         -0.76247633	          0.00000000	          0.08239887	          0.00000000	          0.00000000	          0.00000000	          0.00000000	          0.00000000	          0.00000000	          0.00000000	          0.12114735	          0.00000000	          0.00000000	          0.00000000	          0.00000000	
          0.54800000	        217.23618186	        714.53404462	        -42.49497542	         -0.76243295	          0.00000000	          0.08234683	          0.00000000	          0.00000000	          0.00000000	          0.00000000	          0.00000000	          0.00000000	          0.00000000	         -0.07355392	          0.00000000	          0.00000000	          0.00000000	          0.00000000	
          0.55200000	        222.49901593	        701.42007202	        -41.91230363	         -0.76250875	          0.00000000	          0.08228126	          0.00000000	          0.00000000	          0.00000000	          0.00000000	          0.00000000	          0.00000000	          0.00000000	         -0.29278593	          0.00000000	          0.00000000	          0.00000000	          0.00000000	
          0.55600000	        227.35850456	        685.78941621	        -41.01116765	         -0.76269526	          0.00000000	          0.08220943	          0.00000000	          0.00000000	          0.00000000	          0.00000000	          0.00000000	          0.00000000	          0.00000000	         -0.52366841	          0.00000000	          0.00000000	          0.00000000	          0.00000000	
          0.56000000	        231.66160837	        667.51619184	        -39.65070968	         -0.76301700	          0.00000000	          0.08212421	          0.00000000	          0.00000000	          0.00000000	          0.00000000	          0.00000000	          0.00000000	          0.00000000	         -0.75221214	          0.00000000	          0.00000000	          0.00000000	          0.00000000	
          0.56400000	        235.20755565	        646.39064946	        -37.72488598	         -0.76350731	          0.00000000	          0.08201822	          0.00000000	          0.00000000	          0.00000000	          0.00000000	          0.00000000	          0.00000000	          0.00000000	         -0.96577034	          0.00000000	          0.00000000	          0.00000000	          0.00000000	
          0.56800000	        237.73075778	        622.02713907	        -35.16770728	         -0.76415279	          0.00000000	          0.08190852	          0.00000000	          0.00000000	          0.00000000	          0.00000000	          0.00000000	          0.00000000	          0.00000000	         -1.15455388	          0.00000000	          0.00000000	          0.00000000	          0.00000000	
          0.57200000	        238.87897404	        593.94635844	        -31.96047770	         -0.76486313	          0.00000000	          0.08184394	          0.00000000	          0.00000000	          0.00000000	          0.00000000	          0.00000000	          0.00000000	          0.00000000	         -1.31158660	          0.00000000	          0.00000000	          0.00000000	          0.00000000	
          0.57600000	        238.19286553	        561.87932465	        -28.15311547	         -0.76549888	          0.00000000	          0.08187773	          0.00000000	          0.00000000	          0.00000000	          0.00000000	          0.00000000	          0.00000000	          0.00000000	         -1.43124443	          0.00000000	          0.00000000	          0.00000000	          0.00000000	
          0.58000000	        235.13506658	        526.04271763	        -23.87296797	         -0.76598011	          0.00000000	          0.08201071	          0.00000000	          0.00000000	          0.00000000	          0.00000000	          0.00000000	          0.00000000	          0.00000000	         -1.50742924	          0.00000000	          0.00000000	          0.00000000	          0.00000000	
          0.58400000	        229.18460644	        487.06004391	        -19.30761860	         -0.76635676	          0.00000000	          0.08217920	          0.00000000	          0.00000000	          0.00000000	          0.00000000	          0.00000000	          0.00000000	          0.00000000	         -1.53263687	          0.00000000	          0.00000000	          0.00000000	          0.00000000	
          0.58800000	        219.90902022	        445.61189863	        -14.68070485	         -0.76668970	          0.00000000	          0.08233691	          0.00000000	          0.00000000	          0.00000000	          0.00000000	          0.00000000	          0.00000000	          0.00000000	         -1.49843479	          0.00000000	          0.00000000	          0.00000000	          0.00000000	
